<?xml version="1.0" encoding="utf-8"?>
<!-- Generator: Adobe Illustrator 27.8.0, SVG Export Plug-In . SVG Version: 6.00 Build 0)  -->
<svg version="1.1" id="Ebene_1" xmlns="http://www.w3.org/2000/svg" xmlns:xlink="http://www.w3.org/1999/xlink" x="0px" y="0px"
	 viewBox="0 0 1192.21 786" style="enable-background:new 0 0 1192.21 786;" xml:space="preserve">
<style type="text/css">
	.st0{fill:#007163;}
	.st1{fill:#FFFFFF;}
</style>
<path class="st0" d="M624.22,299.66c0,18.69-15.21,33.9-33.9,33.9c-18.7,0-33.91-15.21-33.91-33.9c0-18.7,15.21-33.91,33.91-33.91
	C609.01,265.75,624.22,280.96,624.22,299.66z M261.72,488.99c-18.69,0-33.9,15.21-33.9,33.9c0,18.69,15.21,33.9,33.9,33.9
	s33.9-15.21,33.9-33.9C295.63,504.2,280.42,488.99,261.72,488.99z M905.79,511.5c18.69,0,33.9-15.21,33.9-33.9
	c0-18.7-15.21-33.91-33.9-33.91s-33.9,15.21-33.9,33.91C871.89,496.29,887.1,511.5,905.79,511.5z M939.01,211.83
	C873.5,85.99,741.98,0,590.29,0C417.63,0,271.08,111.4,218.32,266.2C94.44,286.89,0,394.52,0,524.27C0,668.82,117.18,786,261.72,786
	c25.6,0,158.41,0,297.04,0V574.45c-0.19-5.23-0.65-18.64-18.65-18.64H352.81c-13.52,37.28-49.19,64.04-91.08,64.04
	c-53.46,0-96.96-43.49-96.96-96.96c0-53.46,43.5-96.96,96.96-96.96c42.94,0,79.39,28.08,92.1,66.81h186.29
	c6.71,0,12.87,0.7,18.65,1.83V391.23c-38-13.13-65.4-49.17-65.4-91.58c0-53.46,43.5-96.96,96.96-96.96
	c53.46,0,96.96,43.5,96.96,96.96c0,42.43-27.43,78.49-65.46,91.6v56.42c5.77-1.13,11.93-1.83,18.64-1.83h173.82
	c13.19-37.9,49.18-65.21,91.51-65.21c53.46,0,96.96,43.5,96.96,96.96s-43.5,96.96-96.96,96.96c-42.5,0-78.61-27.52-91.67-65.65
	H640.46c-17.97,0-18.42,13.38-18.62,19.1h-0.02V786c133.59,0,258.27,0,282.21,0c159.16,0,288.18-129.02,288.18-288.18
	C1192.21,350.52,1081.66,229.11,939.01,211.83z"/>
</svg>
