<?xml version="1.0" encoding="utf-8"?>
<!-- Generator: Adobe Illustrator 27.8.0, SVG Export Plug-In . SVG Version: 6.00 Build 0)  -->
<svg version="1.1" id="Ebene_1" xmlns="http://www.w3.org/2000/svg" xmlns:xlink="http://www.w3.org/1999/xlink" x="0px" y="0px"
	 viewBox="0 0 1195.55 358.26" style="enable-background:new 0 0 1195.55 358.26;" xml:space="preserve">
<style type="text/css">
	.st0{fill:#007163;}
	.st1{fill:#FFFFFF;}
</style>
<g>
	<g>
		<path class="st1" d="M308.68,32.56h-55.24V0h150.44v32.56h-55.24v140.08h-39.95V32.56z"/>
		<path class="st1" d="M559.01,140.58v32.06H425.34V0H555.8v32.06h-90.76v37.49h80.15v31.08h-80.15v39.95H559.01z"/>
		<path class="st1" d="M747.92,172.64l-0.25-103.58l-50.81,85.33h-18l-50.56-83.11v101.37h-37.49V0h33.05l64.62,107.28L752.12,0
			h32.8l0.49,172.64H747.92z"/>
		<path class="st1" d="M983.45,172.64l-0.25-103.58l-50.81,85.33h-18l-50.56-83.11v101.37h-37.49V0h33.05l64.62,107.28L987.64,0
			h32.8l0.49,172.64H983.45z"/>
		<path class="st1" d="M1195.55,140.58v32.06h-133.67V0h130.46v32.06h-90.76v37.49h80.15v31.08h-80.15v39.95H1195.55z"/>
	</g>
	<g>
		<path class="st1" d="M0,302.42c0-32.54,24.99-55.83,58.61-55.83c18.66,0,34.24,6.79,44.42,19.13l-16.04,14.81
			c-7.25-8.33-16.35-12.65-27.15-12.65c-20.21,0-34.55,14.19-34.55,34.55c0,20.36,14.34,34.55,34.55,34.55
			c10.8,0,19.9-4.32,27.15-12.8l16.04,14.81c-10.18,12.49-25.76,19.28-44.57,19.28C24.99,358.26,0,334.97,0,302.42z"/>
		<path class="st1" d="M119.84,248.44h24.99v87.61h54.14v20.36h-79.12V248.44z"/>
		<path class="st1" d="M204.36,302.42c0-32.08,24.99-55.83,59.07-55.83c33.93,0,59.07,23.6,59.07,55.83
			c0,32.24-25.14,55.83-59.07,55.83C229.35,358.26,204.36,334.51,204.36,302.42z M297.21,302.42c0-20.51-14.5-34.55-33.78-34.55
			c-19.28,0-33.78,14.04-33.78,34.55c0,20.51,14.5,34.55,33.78,34.55C282.71,336.97,297.21,322.94,297.21,302.42z"/>
		<path class="st1" d="M340.4,308.9v-60.46h24.99v59.54c0,20.51,8.95,28.99,24.06,28.99c15.27,0,24.06-8.48,24.06-28.99v-59.54
			h24.68v60.46c0,31.77-18.2,49.35-48.89,49.35S340.4,340.67,340.4,308.9z"/>
		<path class="st1" d="M462.86,248.44h49.05c35.32,0,59.53,21.28,59.53,53.98s-24.22,53.98-59.53,53.98h-49.05V248.44z
			 M510.67,335.89c21.44,0,35.47-12.8,35.47-33.47c0-20.67-14.03-33.47-35.47-33.47h-22.83v66.94H510.67z"/>
		<path class="st1" d="M716.88,358.26l-12.96-12.03c-9.87,7.71-22.21,12.03-36.09,12.03c-23.75,0-41.18-12.34-41.18-29.61
			c0-13.57,7.25-22.98,23.75-32.23c-7.87-8.17-11.11-15.12-11.11-22.83c0-15.73,13.26-26.53,33.62-26.53c18.66,0,31,9.56,31,24.83
			c0,11.1-6.48,19.28-21.13,27.3l19.74,18.35c2.31-4.78,4.17-10.49,5.4-16.81l19.28,6.02c-2.01,9.25-5.25,17.58-9.87,24.52
			l12.65,11.72L716.88,358.26z M689.74,333.12l-26.07-24.37c-9.87,5.71-13.42,10.64-13.42,17.28c0,7.86,7.4,13.42,19.28,13.42
			C676.93,339.44,683.87,337.28,689.74,333.12z M661.2,273.27c0,4.17,1.7,7.25,8.33,13.73c10.64-5.71,14.04-9.72,14.04-14.65
			c0-5.24-3.7-8.95-10.64-8.95C665.52,263.4,661.2,267.57,661.2,273.27z"/>
		<path class="st1" d="M807.34,268.8h-34.55v-20.36h94.08v20.36h-34.55v87.6h-24.99V268.8z"/>
		<path class="st1" d="M963.89,336.36v20.05h-83.6V248.44h81.59v20.05h-56.76v23.44h50.12v19.43h-50.12v24.99H963.89z"/>
		<path class="st1" d="M976.7,302.42c0-32.54,24.99-55.83,58.61-55.83c18.66,0,34.24,6.79,44.42,19.13l-16.04,14.81
			c-7.25-8.33-16.35-12.65-27.15-12.65c-20.2,0-34.55,14.19-34.55,34.55c0,20.36,14.34,34.55,34.55,34.55
			c10.8,0,19.9-4.32,27.15-12.8l16.04,14.81c-10.18,12.49-25.76,19.28-44.57,19.28C1001.68,358.26,976.7,334.97,976.7,302.42z"/>
		<path class="st1" d="M1195.55,248.44v107.96h-24.99v-44.27h-49.05v44.27h-24.99V248.44h24.99v42.57h49.05v-42.57H1195.55z"/>
	</g>
	<path class="st1" d="M137.11,65.82c0,4.1-3.34,7.45-7.45,7.45c-4.11,0-7.45-3.34-7.45-7.45c0-4.11,3.34-7.45,7.45-7.45
		C133.77,58.37,137.11,61.71,137.11,65.82z M57.49,107.4c-4.11,0-7.45,3.34-7.45,7.45c0,4.1,3.34,7.45,7.45,7.45
		s7.45-3.34,7.45-7.45C64.93,110.75,61.59,107.4,57.49,107.4z M198.95,112.35c4.11,0,7.45-3.34,7.45-7.45
		c0-4.11-3.34-7.45-7.45-7.45c-4.11,0-7.45,3.34-7.45,7.45C191.51,109.01,194.85,112.35,198.95,112.35z M206.25,46.53
		C191.86,18.89,162.97,0,129.65,0c-37.92,0-70.11,24.47-81.7,58.47C20.74,63.01,0,86.65,0,115.15c0,31.75,25.74,57.49,57.49,57.49
		c5.62,0,34.79,0,65.24,0v-46.47c-0.04-1.15-0.14-4.09-4.1-4.09H77.49c-2.97,8.19-10.8,14.07-20.01,14.07
		c-11.74,0-21.3-9.55-21.3-21.3s9.55-21.3,21.3-21.3c9.43,0,17.44,6.17,20.23,14.68h40.92c1.47,0,2.83,0.15,4.1,0.4v-22.7
		c-8.35-2.88-14.37-10.8-14.37-20.11c0-11.74,9.55-21.3,21.3-21.3s21.3,9.55,21.3,21.3c0,9.32-6.03,17.24-14.38,20.12v12.39
		c1.27-0.25,2.62-0.4,4.09-0.4h38.18c2.9-8.32,10.8-14.32,20.1-14.32c11.74,0,21.3,9.55,21.3,21.3s-9.55,21.3-21.3,21.3
		c-9.33,0-17.27-6.05-20.14-14.42h-38.14c-3.95,0-4.05,2.94-4.09,4.19h-0.01v56.67c29.34,0,56.73,0,61.99,0
		c34.96,0,63.3-28.34,63.3-63.3C261.86,76.99,237.58,50.32,206.25,46.53z"/>
</g>
</svg>
