<?xml version="1.0" encoding="utf-8"?>
<!-- Generator: Adobe Illustrator 27.8.0, SVG Export Plug-In . SVG Version: 6.00 Build 0)  -->
<svg version="1.1" id="Ebene_1" xmlns="http://www.w3.org/2000/svg" xmlns:xlink="http://www.w3.org/1999/xlink" x="0px" y="0px"
	 viewBox="0 0 1190.55 784.91" style="enable-background:new 0 0 1190.55 784.91;" xml:space="preserve">
<style type="text/css">
	.st0{fill:#007163;}
	.st1{fill:#FFFFFF;}
</style>
<path class="st1" d="M623.35,299.24c0,18.66-15.19,33.85-33.85,33.85c-18.67,0-33.86-15.19-33.86-33.85
	c0-18.67,15.19-33.86,33.86-33.86C608.17,265.38,623.35,280.57,623.35,299.24z M261.36,488.31c-18.67,0-33.85,15.19-33.85,33.85
	c0,18.66,15.19,33.85,33.85,33.85s33.85-15.19,33.85-33.85C295.22,503.5,280.03,488.31,261.36,488.31z M904.53,510.79
	c18.67,0,33.85-15.19,33.85-33.85c0-18.67-15.19-33.86-33.85-33.86s-33.85,15.19-33.85,33.86
	C870.68,495.6,885.87,510.79,904.53,510.79z M937.71,211.54C872.28,85.87,740.94,0,589.47,0C417.05,0,270.7,111.24,218.02,265.83
	C94.31,286.49,0,393.97,0,523.55c0,144.35,117.02,261.36,261.36,261.36c25.57,0,158.19,0,296.63,0V573.65
	c-0.19-5.23-0.65-18.61-18.62-18.61H352.32c-13.5,37.23-49.12,63.95-90.95,63.95c-53.39,0-96.82-43.43-96.82-96.82
	s43.44-96.82,96.82-96.82c42.88,0,79.28,28.04,91.97,66.72h186.03c6.7,0,12.85,0.69,18.62,1.83v-103.2
	c-37.94-13.11-65.31-49.11-65.31-91.45c0-53.39,43.44-96.83,96.83-96.83s96.82,43.44,96.82,96.83c0,42.37-27.4,78.38-65.37,91.47
	v56.35c5.77-1.13,11.92-1.83,18.61-1.83h173.58c13.17-37.84,49.11-65.12,91.38-65.12c53.39,0,96.82,43.44,96.82,96.83
	s-43.44,96.82-96.82,96.82c-42.44,0-78.5-27.48-91.54-65.56H639.57c-17.94,0-18.4,13.36-18.59,19.07h-0.02v257.63
	c133.41,0,257.91,0,281.82,0c158.93,0,287.78-128.84,287.78-287.78C1190.55,350.03,1080.15,228.79,937.71,211.54z"/>
</svg>
