<?xml version="1.0" encoding="UTF-8"?>
<svg width="300" height="50" viewBox="0 0 320 50" version="1.1" xmlns="http://www.w3.org/2000/svg">
    <defs>
        <linearGradient id="gradient" x1="0%" y1="0%" x2="100%" y2="100%">
            <stop offset="0%" style="stop-color: #667eea"/>
            <stop offset="100%" style="stop-color: #764ba2"/>
        </linearGradient>
        <!-- Clip path for the cloud to show gear through it -->
        <clipPath id="cloud-clip">
            <path d="M11,32 C4.5,32 0,27.5 0,21 C0,14.5 4.5,10 11,10 C13.9,10 16.5,11.2 18.4,13.2 C19.6,9.8 22.8,7.5 26.5,7.5 C31.2,7.5 35,11.3 35,16 C35,16.4 35,16.8 34.9,17.2 C38.3,17.8 41,20.8 41,24.5 C41,28.5 37.8,31.7 33.8,31.7 L11,32 Z"/>
        </clipPath>
    </defs>

    <!-- Cloud with gear icon -->
    <g transform="translate(5, 10)">
        <!-- Gear (behind cloud, like a sun) -->
        <g transform="translate(12, -5)">
            <path d="M25,6 L28,6 L29,10 C29.4,10.1 29.8,10.3 30.2,10.5 L33.7,8.5 L35.5,10.3 L33.5,13.8 C33.7,14.2 33.9,14.6 34,15 L38,16 L38,19 L34,20 C33.9,20.4 33.7,20.8 33.5,21.2 L35.5,24.7 L33.7,26.5 L30.2,24.5 C29.8,24.7 29.4,24.9 29,25 L28,29 L25,29 L24,25 C23.6,24.9 23.2,24.7 22.8,24.5 L19.3,26.5 L17.5,24.7 L19.5,21.2 C19.3,20.8 19.1,20.4 19,20 L15,19 L15,16 L19,15 C19.1,14.6 19.3,14.2 19.5,13.8 L17.5,10.3 L19.3,8.5 L22.8,10.5 C23.2,10.3 23.6,10.1 24,10 L25,6 Z M26.5,22 C28.7,22 30.5,20.2 30.5,18 C30.5,15.8 28.7,14 26.5,14 C24.3,14 22.5,15.8 22.5,18 C22.5,20.2 24.3,22 26.5,22 Z" 
                  fill="url(#gradient)"/>
        </g>
        
        <!-- Cloud (in front) -->
        <path d="M11,32 C4.5,32 0,27.5 0,21 C0,14.5 4.5,10 11,10 C13.9,10 16.5,11.2 18.4,13.2 C19.6,9.8 22.8,7.5 26.5,7.5 C31.2,7.5 35,11.3 35,16 C35,16.4 35,16.8 34.9,17.2 C38.3,17.8 41,20.8 41,24.5 C41,28.5 37.8,31.7 33.8,31.7 L11,32 Z" 
              fill="white"
              stroke="url(#gradient)" 
              stroke-width="2"/>
    </g>

    <!-- Company name -->
    <text x="60" y="32" font-family="Montserrat, -apple-system, sans-serif" font-size="22" font-weight="700">
        <tspan fill="url(#gradient)">FRIDAY</tspan>
        <tspan x="140" fill="#333333">DEPLOYMENTS</tspan>
    </text>
</svg> 