<svg viewBox="0 0 294 48" xmlns="http://www.w3.org/2000/svg"><g transform="translate(4 1)"><path d="M 46.89 22.856 C 46.89 11.628 55.988 2.526 67.211 2.526 C 78.434 2.526 87.532 11.628 87.532 22.856 C 87.532 34.084 78.434 43.186 67.211 43.186 C 55.988 43.186 46.89 34.084 46.89 22.856 Z" fill="rgb(0, 57, 88)"></path><path d="M 24.888 22.856 C 24.888 11.628 33.986 2.526 45.209 2.526 C 56.432 2.526 65.53 11.628 65.53 22.856 C 65.53 34.084 56.432 43.186 45.209 43.186 C 33.986 43.186 24.888 34.084 24.888 22.856 Z" fill="rgb(211, 82, 14)" opacity="0.8"></path><path d="M 2.164 23.578 C 2.164 12.35 11.262 3.248 22.485 3.248 C 33.708 3.248 42.806 12.35 42.806 23.578 C 42.806 34.806 33.708 43.908 22.485 43.908 C 11.262 43.908 2.164 34.806 2.164 23.578 Z" fill="rgb(144, 190, 213)" opacity="0.7"></path><path d="M 120.194 16.911 L 120.194 22.43 L 106.307 22.43 L 106.307 0.553 L 112.411 0.553 L 112.411 16.911 L 120.193 16.911 Z M 121.129 11.492 C 121.129 4.805 126.145 0 133.175 0 C 140.204 0 145.184 4.788 145.184 11.492 C 145.184 18.196 140.186 22.984 133.175 22.984 C 126.163 22.984 121.129 18.179 121.129 11.492 Z M 138.913 11.493 C 138.913 8.069 136.503 5.609 133.175 5.609 C 129.846 5.609 127.401 8.087 127.401 11.493 C 127.401 14.899 129.847 17.375 133.175 17.375 C 136.502 17.375 138.913 14.916 138.913 11.493 Z M 156.474 15.736 L 154.29 15.736 L 154.29 22.43 L 148.265 22.43 L 148.265 0.553 L 157.743 0.553 C 162.457 0.553 165.875 3.723 165.875 8.296 C 165.875 10.981 164.564 13.181 162.403 14.475 L 166.745 22.431 L 160.021 22.431 L 156.473 15.737 Z M 154.29 10.66 L 157.041 10.66 C 158.726 10.66 159.695 9.645 159.695 8.277 C 159.695 6.91 158.726 5.909 157.041 5.909 L 154.29 5.909 Z M 106.045 30.263 L 108.716 30.263 L 114.105 44.445 L 119.589 30.263 L 122.166 30.263 L 122.166 47 L 120.174 47 L 120.174 33.802 L 114.926 47 L 113.168 47 L 108.013 33.825 L 108.013 47 L 106.045 47 Z M 125.868 30.263 L 136.693 30.263 L 136.693 32.161 L 128.023 32.161 L 128.023 37.412 L 136.225 37.412 L 136.225 39.335 L 128.023 39.335 L 128.023 45.101 L 137.138 45.101 L 136.787 47 L 125.867 47 L 125.867 30.263 Z M 139.786 30.263 L 141.919 30.263 L 150.425 43.554 L 150.425 30.263 L 152.51 30.263 L 152.51 47 L 150.448 47 L 141.872 33.779 L 141.872 47 L 139.787 47 L 139.787 30.263 Z M 160.313 32.184 L 154.782 32.184 L 154.782 30.263 L 168.021 30.263 L 168.021 32.184 L 162.468 32.184 L 162.468 47 L 160.313 47 Z M 177.769 42.335 L 170.599 42.335 L 168.842 47 L 166.592 47 L 173.107 30.263 L 175.38 30.263 L 181.87 47 L 179.527 47 L 177.77 42.335 Z M 174.161 32.724 L 171.255 40.46 L 177.113 40.46 Z M 183.979 30.263 L 186.134 30.263 L 186.134 45.078 L 194.804 45.078 L 194.476 47 L 183.978 47 L 183.978 30.263 Z M 212.987 39.358 L 204.528 39.358 L 204.528 47 L 202.373 47 L 202.373 30.263 L 204.528 30.263 L 204.528 37.342 L 212.987 37.342 L 212.987 30.263 L 215.143 30.263 L 215.143 47 L 212.987 47 Z M 218.844 30.263 L 229.669 30.263 L 229.669 32.161 L 221 32.161 L 221 37.412 L 229.201 37.412 L 229.201 39.335 L 221 39.335 L 221 45.101 L 230.115 45.101 L 229.763 47 L 218.844 47 L 218.844 30.263 Z M 242.581 42.335 L 235.411 42.335 L 233.654 47 L 231.404 47 L 237.919 30.263 L 240.192 30.263 L 246.682 47 L 244.339 47 L 242.582 42.335 Z M 238.972 32.724 L 236.067 40.46 L 241.925 40.46 Z M 248.79 30.263 L 250.945 30.263 L 250.945 45.078 L 259.615 45.078 L 259.287 47 L 248.789 47 L 248.789 30.263 Z M 263.248 32.184 L 257.718 32.184 L 257.718 30.263 L 270.957 30.263 L 270.957 32.184 L 265.404 32.184 L 265.404 47 L 263.248 47 Z M 283.844 39.358 L 275.385 39.358 L 275.385 47 L 273.23 47 L 273.23 30.263 L 275.385 30.263 L 275.385 37.342 L 283.844 37.342 L 283.844 30.263 L 286 30.263 L 286 47 L 283.844 47 Z" fill="rgb(0, 57, 88)"></path><path d="M 0 21.611 C 0 16.097 2.231 11.076 5.897 7.303 C 5.9 7.298 5.903 7.293 5.907 7.289 C 10.045 3.033 15.999 0.361 22.616 0.361 C 27.06 0.361 31.209 1.566 34.705 3.649 C 40.731 7.235 44.829 13.428 45.204 20.543 C 45.222 20.895 45.233 21.251 45.233 21.61 M 45.234 21.611 L 45.234 23.579 M 90.465 25.548 C 90.465 31.06 88.234 36.083 84.569 39.855 C 84.566 39.86 84.562 39.865 84.558 39.869 C 80.42 44.125 74.466 46.797 67.849 46.797 C 63.405 46.797 59.257 45.592 55.761 43.509 C 49.734 39.923 45.637 33.73 45.262 26.615 C 45.244 26.263 45.233 25.907 45.233 25.548 M 45.234 23.579 L 45.234 25.548" fill="transparent"></path></g></svg>
