<svg xmlns="http://www.w3.org/2000/svg" viewBox="0 0 184 40">
  <path d="M 35 0 L 5 0 C 2.239 0 0 2.239 0 5 L 0 35 C 0 37.761 2.239 40 5 40 L 35 40 C 37.761 40 40 37.761 40 35 L 40 5 C 40 2.239 37.761 0 35 0 Z M 7.186 17.774 C 6.843 16.166 6.667 14.46 6.667 12.749 C 6.667 11.112 6.811 9.511 7.125 7.968 C 7.212 7.54 7.792 7.459 8.041 7.815 C 9.466 9.853 11.49 11.165 13.752 11.165 C 16.108 11.165 18.246 9.763 19.677 7.572 C 19.884 7.254 20.355 7.254 20.563 7.572 C 21.994 9.763 24.101 11.165 26.457 11.165 C 28.718 11.165 30.773 9.851 32.199 7.815 C 32.448 7.459 33.028 7.539 33.115 7.968 C 33.208 8.423 33.263 8.905 33.329 9.369 C 33.351 9.527 33.294 9.659 33.176 9.765 C 27.379 14.932 19.13 18.201 9.965 18.201 C 9.174 18.201 8.39 18.184 7.613 18.14 C 7.404 18.13 7.228 17.98 7.186 17.774 Z M 31.961 21.047 C 29.854 26.752 25.663 31.404 20.343 33.963 C 20.22 34.022 20.074 34.006 19.95 33.947 C 18.993 33.489 18.072 32.972 17.197 32.385 C 16.879 32.172 16.965 31.678 17.318 31.536 C 23.132 29.196 28.258 25.526 31.434 20.816 C 31.555 20.543 32.157 20.516 31.961 21.047 Z M 13.562 29.136 C 13.4 29.177 13.221 29.135 13.104 29.015 C 11.11 26.958 9.779 25.433 8.703 22.809 C 8.575 22.498 8.799 22.146 9.131 22.14 C 17.695 21.971 26.201 19.882 32.508 13.594 C 32.799 13.305 33.333 13.415 33.333 13.898 C 33.333 16.614 22.476 26.88 13.562 29.136 Z" fill="rgb(1, 82, 57)"></path>
  <g transform="translate(53 6.333)">
    <path d="M 0 24.056 L 3.511 18.216 C 5.607 19.478 8.136 20.929 12.158 20.929 C 14.083 20.929 15.499 20.401 15.499 19.101 C 15.499 17.726 13.857 17.481 10.572 16.916 L 9.571 16.747 C 3.492 15.711 0.963 13.092 1.095 8.42 C 1.227 3.372 5.475 0 11.818 0 C 15.273 0 18.387 0.358 22.975 2.769 L 19.879 8.628 C 18.142 7.648 15.518 6.424 12.252 6.424 C 10.327 6.424 8.854 6.951 8.854 8.138 C 8.854 9.626 11.554 9.777 14.253 10.304 L 15.103 10.474 C 20.559 11.529 23.334 14.147 23.334 18.197 C 23.334 24.866 17.689 27.333 12.063 27.333 C 7.325 27.333 3.021 26.203 0 24.055 Z" fill="rgb(1, 82, 57)"></path>
    <path d="M 26.333 26.834 L 26.333 0.5 L 47 0.5 L 47 6.834 L 33.5 6.834 L 33.5 10.334 L 46 10.334 L 46 16.667 L 33.5 16.667 L 33.5 20.5 L 47 20.5 L 47 26.834 Z" fill="rgb(1, 82, 57)"></path>
    <path d="M 50.5 26.834 L 50.5 0.5 L 62.167 0.5 C 68.87 0.5 72.333 3.9 72.333 9.238 C 72.333 13.326 70.13 16.239 65.667 17.167 L 72.833 26.834 L 64.327 26.834 L 57.997 17.5 L 57.663 17.5 L 57.663 26.834 Z M 57.663 11.667 L 62.163 11.667 C 63.933 11.667 65.241 10.847 65.241 9.238 C 65.241 7.629 63.933 6.834 62.163 6.834 L 57.663 6.834 Z" fill="rgb(1, 82, 57)"></path>
    <path d="M 74.25 13.667 C 74.25 5.642 80.145 0 88.511 0 C 92.733 0 95.985 1.375 98.247 3.655 L 93.151 8.628 C 91.953 7.46 90.337 6.688 88.074 6.688 C 84.309 6.688 81.647 9.551 81.647 13.676 C 81.647 18.48 84.784 20.872 88.188 20.872 C 91.535 20.872 93.456 19.572 94.216 16.992 L 87.979 16.992 L 87.976 11.833 L 101.366 11.833 C 101.48 12.662 101.366 13.413 101.366 14.167 C 101.366 22.964 94.734 27.333 88.478 27.333 C 80.111 27.333 74.25 21.673 74.25 13.667 Z" fill="rgb(1, 82, 57)"></path>
    <path d="M 103.167 13.667 C 103.167 5.798 108.94 0 117.083 0 C 125.226 0 131 5.798 131 13.667 C 131 21.536 125.226 27.334 117.083 27.334 C 108.94 27.334 103.167 21.536 103.167 13.667 Z M 123.405 13.667 C 123.405 9.638 120.753 6.852 116.917 6.852 C 113.08 6.852 110.428 9.638 110.428 13.667 C 110.428 17.695 113.08 20.481 116.917 20.481 C 120.753 20.481 123.405 17.695 123.405 13.667 Z" fill="rgb(1, 82, 57)"></path>
  </g>
</svg>
